<?xml version="1.0" standalone="no"?><!DOCTYPE svg PUBLIC "-//W3C//DTD SVG 1.1//EN" "http://www.w3.org/Graphics/SVG/1.1/DTD/svg11.dtd"><svg t="1555816951520" class="icon" style="" viewBox="0 0 1024 1024" version="1.1" xmlns="http://www.w3.org/2000/svg" p-id="2931" xmlns:xlink="http://www.w3.org/1999/xlink" width="200" height="200"><defs><style type="text/css"></style></defs><path d="M512 879c202.689 0 367-164.311 367-367S714.689 145 512 145 145 309.311 145 512s164.311 367 367 367z m0 60C276.174 939 85 747.826 85 512S276.174 85 512 85s427 191.174 427 427-191.174 427-427 427z m191.88-618.787c11.715 11.716 11.715 30.71 0 42.427L361.64 704.88c-11.716 11.715-30.711 11.715-42.427 0-11.716-11.716-11.716-30.711 0-42.427l342.24-342.24c11.716-11.716 30.71-11.716 42.426 0z m0 383.666c-11.716 11.716-30.711 11.716-42.427 0l-342.24-342.24c-11.716-11.715-11.716-30.71 0-42.426 11.716-11.716 30.71-11.716 42.427 0l342.24 342.24c11.715 11.716 11.715 30.71 0 42.426z" p-id="2932" fill="#d81e06"></path></svg>