<?xml version="1.0" encoding="utf-8"?>
<!-- Generator: Adobe Illustrator 15.0.0, SVG Export Plug-In . SVG Version: 6.00 Build 0)  -->
<!DOCTYPE svg PUBLIC "-//W3C//DTD SVG 1.1//EN" "http://www.w3.org/Graphics/SVG/1.1/DTD/svg11.dtd">
<svg version="1.1"  xmlns="http://www.w3.org/2000/svg" xmlns:xlink="http://www.w3.org/1999/xlink" x="0px" y="0px"
	 width="48px" height="48px" viewBox="0 0 48 48" enable-background="new 0 0 48 48" xml:space="preserve">
<g>
	<path fill="#2196F3" d="M24,8c8.822,0,16,7.178,16,16c0,8.822-7.178,16-16,16c-8.822,0-16-7.178-16-16C8,15.178,15.178,8,24,8
		 M24,4C12.954,4,4,12.955,4,24c0,11.044,8.954,20,20,20s20-8.956,20-20C44,12.955,35.046,4,24,4L24,4z"/>
	<polygon fill="#2196F3" points="35,24 25,16 25,32 	"/>
	<rect x="13" y="22" fill="#2196F3" width="15" height="4"/>
</g>
</svg>
