<?xml version="1.0" standalone="no"?><!DOCTYPE svg PUBLIC "-//W3C//DTD SVG 1.1//EN" "http://www.w3.org/Graphics/SVG/1.1/DTD/svg11.dtd"><svg t="1566863719492" class="icon" viewBox="0 0 1024 1024" version="1.1" xmlns="http://www.w3.org/2000/svg" p-id="6203" xmlns:xlink="http://www.w3.org/1999/xlink" width="200" height="200"><defs><style type="text/css"></style></defs><path d="M519.678 425.987c-63.999 0-115.708 51.709-115.708 115.708 0 64.005 51.709 115.714 115.708 115.714 64.004 0 115.713-51.709 115.713-115.714 0-63.999-51.709-115.708-115.713-115.708z m0 194.047c-43.515 0-78.335-35.331-78.335-78.34 0-43.52 35.328-78.335 78.335-78.335 43.521 0 78.34 35.328 78.34 78.335 0 43.522-35.327 78.34-78.34 78.34z m0 0M665.088 418.307c0 12.441 10.089 22.524 22.53 22.524s22.524-10.082 22.524-22.524c0-12.443-10.082-22.53-22.524-22.53-12.441 0-22.53 10.087-22.53 22.53z m0 0" fill="#31A894" p-id="6204"></path><path d="M512.003 0C229.375 0 0 229.375 0 512.003 0 794.625 229.375 1024 512.003 1024 794.625 1024 1024 794.625 1024 512.003 1024 229.375 794.625 0 512.003 0z m265.214 678.4c0 21.504-17.406 38.911-39.424 38.911h-437.25c-21.505 0-39.424-17.408-39.424-38.911V390.142c0-21.504 17.411-38.911 39.424-38.911h73.73c25.088-3.584 32.769-22.524 32.769-22.524h2.559c11.778-22.016 32.255-37.379 69.121-37.379h79.36c32.769 0 59.39 12.799 70.654 38.399l3.071 6.655h1.539s4.609 9.219 17.92 14.849h86.528c21.505 0 39.424 17.408 39.424 38.911V678.4z m0 0" fill="#31A894" p-id="6205"></path></svg>