<svg width="24" height="24"
                                                viewBox="0 0 24 24" fill="none" xmlns="http://www.w3.org/2000/svg">
                                                <path fill-rule="evenodd" clip-rule="evenodd"
                                                    d="M16.7954 12.0599C17.508 11.9889 18.2849 11.7394 18.7764 11.5288C18.8213 11.5095 18.8681 11.4947 18.9159 11.4846C19.1236 11.4404 19.3082 11.3939 19.4719 11.3463C19.18 7.96558 16.6453 5.22621 13.3631 4.62357C13.2911 4.70021 13.2219 4.7763 13.1553 4.85058C13.1143 4.8964 13.0718 4.94433 13.0292 4.99256L13.0291 4.99258C12.9076 5.12996 12.7839 5.26967 12.6842 5.36933C12.5586 5.49496 12.4003 5.74756 12.264 6.11153C12.1318 6.46428 12.0416 6.8653 12.0144 7.23929C11.9863 7.62475 12.0298 7.91689 12.1043 8.09093C12.1652 8.23334 12.213 8.24076 12.2573 8.24693C13.0252 8.35382 13.6235 8.56403 14.0827 8.88856C14.5543 9.22182 14.8238 9.6364 14.9927 10.0496C15.1208 10.3629 15.1987 10.7036 15.2593 10.9685C15.2722 11.0247 15.2842 11.0776 15.2959 11.126C15.371 11.4392 15.4393 11.6434 15.5451 11.8021C15.6001 11.8845 15.7024 11.9682 15.9176 12.0239C16.1408 12.0817 16.4392 12.0953 16.7954 12.0599ZM4.50002 12C4.50002 8.04777 7.55705 4.80954 11.4355 4.52093C11.1917 4.82931 11.0006 5.20807 10.8593 5.58531C10.6793 6.06588 10.5564 6.6072 10.5183 7.13047C10.4811 7.64226 10.5203 8.20229 10.7253 8.68125C10.9439 9.19184 11.3726 9.63823 12.0505 9.73261C12.6663 9.81833 13.0134 9.96961 13.2171 10.1136C13.4085 10.2488 13.5194 10.4097 13.6042 10.6171C13.6816 10.8065 13.7261 10.9988 13.7851 11.2536L13.7851 11.2537L13.7853 11.2542C13.8012 11.3231 13.8182 11.3966 13.8372 11.4759C13.9177 11.8115 14.0339 12.2395 14.2971 12.6342C14.6111 13.1052 15.0776 13.3559 15.5417 13.476C15.9978 13.5941 16.4892 13.5978 16.9439 13.5525C17.8185 13.4655 18.7118 13.1809 19.2989 12.9364C19.3486 12.9255 19.3977 12.9143 19.4462 12.9029C19.0003 16.6193 15.8366 19.5 12 19.5C11.9037 19.5 11.8079 19.4982 11.7125 19.4946C11.9035 18.8515 12.222 17.7722 12.428 16.7193C12.5435 16.1291 12.6303 15.5154 12.6328 14.9717C12.6351 14.4735 12.5715 13.8449 12.2041 13.3985C11.734 12.8272 11.0433 12.6667 10.4106 12.6673C9.77614 12.6679 9.06914 12.8272 8.37552 13.0429C7.30709 13.3751 6.12161 13.8921 5.08063 14.346L5.08061 14.346C5.02009 14.3724 4.96005 14.3986 4.90056 14.4245C4.6409 13.664 4.50002 12.8485 4.50002 12ZM10.1963 19.2817C8.20953 18.7912 6.53473 17.5088 5.52591 15.7887C5.59576 15.7583 5.66589 15.7277 5.73623 15.697L5.73628 15.697C6.76439 15.249 7.8395 14.7804 8.82092 14.4752C9.46211 14.2758 10.0006 14.1677 10.412 14.1673C10.8251 14.1669 10.9803 14.2719 11.0459 14.3516L11.0449 14.3504C11.0449 14.3504 11.045 14.3506 11.0453 14.3511C11.0484 14.3563 11.0713 14.3942 11.093 14.4918C11.1182 14.6051 11.1338 14.7617 11.1328 14.9647C11.1309 15.372 11.0637 15.8805 10.9559 16.4313C10.7606 17.43 10.4539 18.463 10.263 19.1064L10.2295 19.2192C10.2185 19.2403 10.2074 19.2611 10.1963 19.2817Z"
                                                    fill="#515164"></path>
                                            </svg>